# xmcd CD database file
#
# Track frame offsets:
#	150
#	41925
#	78150
#	115500
#	148875
#	190050
#
# Disc length: 3027 seconds
#
# Revision: 0
# Processed by: cddbd v1.4PL0 Copyright (c) Steve Scherf et al.
# Submitted via: CDex 1.50beta10
#
DISCID=4b0bd106
DTITLE=Shi Zhi-You - Waterlily
DYEAR=1999
DGENRE=New Age
TTITLE0=Dancing Fairy - The White Waterlily Of East Lake
TTITLE1=Guest Of The Moon - The Yellow Waterlily
TTITLE2=Longlasting Glamour - The Ancient Waterlily
TTITLE3=Image Of Majesty - The Buddha-Seated Waterlily
TTITLE4=Beauty From Water - The Red Waterlily Of West Lake
TTITLE5=Intertwining Shadow - The Twin Waterlily
EXTD=YEAR: 1999
EXTT0=
EXTT1=
EXTT2=
EXTT3=
EXTT4=
EXTT5=
PLAYORDER=
